<svg width="151" height="21" viewBox="0 0 151 21" fill="none" xmlns="http://www.w3.org/2000/svg">
<path d="M15.4058 8.7907C15.4058 3.57122 12.0029 0.763082 7.70288 0.763082C3.37194 0.763082 0 3.57122 0 8.7907C0 13.9797 3.37194 16.8183 7.70288 16.8183C12.0029 16.8183 15.4058 14.0102 15.4058 8.7907ZM10.982 8.7907C10.982 11.5988 9.83742 13.125 7.70288 13.125C5.56835 13.125 4.42374 11.5988 4.42374 8.7907C4.42374 5.98256 5.56835 4.4564 7.70288 4.4564C9.83742 4.4564 10.982 5.98256 10.982 8.7907Z" fill="black"/>
<path d="M28.3637 0.640989C27.7682 0.992007 26.7396 0.984376 25.363 0.976745C25.1774 0.976745 24.9763 0.976745 24.7752 0.976745C19.9802 0.976745 17.4126 3.61701 17.4126 9.55378V10.3169C17.4126 14.5291 19.7018 16.8183 23.5687 16.8183C27.4356 16.8183 29.7248 14.5367 29.7248 11.0189C29.7248 7.76817 27.7605 5.6468 24.5587 5.6468C22.4705 5.6468 21.3414 6.5625 20.6918 7.96657H20.5989C20.9083 5.18895 21.991 4.30378 24.9299 4.30378C27.5284 4.30378 28.4565 4.12064 29.4155 3.44913L28.3637 0.640989ZM23.5997 13.7049C22.4551 13.7049 21.7745 12.7892 21.7745 11.202C21.7745 9.5843 22.4551 8.66861 23.5997 8.66861C24.6824 8.66861 25.363 9.5843 25.363 11.202C25.363 12.7892 24.6824 13.7049 23.5997 13.7049Z" fill="black"/>
<path d="M31.8496 21H36.1187V14.6817H36.1806C36.6755 15.8721 37.8201 16.7573 39.4907 16.7573C42.0273 16.7573 44.1619 14.8038 44.1619 10.7442C44.1619 6.50145 41.8727 4.73111 39.5216 4.73111C37.7583 4.73111 36.6446 5.73837 36.1806 6.92878H36.0878V4.88372H31.8496V21ZM36.0259 10.7442C36.0259 9.00436 36.7374 7.96657 37.913 7.96657C39.0885 7.96657 39.7691 9.00436 39.7691 10.7442C39.7691 12.484 39.0885 13.5218 37.913 13.5218C36.7374 13.5218 36.0259 12.4535 36.0259 10.7442Z" fill="black"/>
<path d="M49.5871 16.7878C51.1338 16.7878 52.3016 16.2689 53.0209 14.9564H53.1137V16.6047H57.1043V8.57704C57.1043 6.40988 55.0239 4.73111 51.6288 4.73111C48.079 4.73111 46.3311 6.5625 46.1842 8.69913H50.113C50.2135 7.9742 50.7549 7.63082 51.5669 7.63082C52.3094 7.63082 52.8353 7.96657 52.8353 8.57704V8.60756C52.8353 9.2867 52.0774 9.50036 50.082 9.64535C47.6304 9.82086 45.7202 10.7976 45.7202 13.3692C45.7202 15.7042 47.3133 16.7878 49.5871 16.7878ZM50.9792 14.1323C50.2522 14.1323 49.7417 13.7813 49.7417 13.125C49.7417 12.5222 50.1748 12.0567 51.1648 11.9041C51.8453 11.7972 52.4176 11.6599 52.8662 11.4767V12.4535C52.8662 13.5218 51.9459 14.1323 50.9792 14.1323Z" fill="black"/>
<path d="M58.9449 13.064C59.0377 15.605 61.2883 16.8183 64.3586 16.8183C67.4985 16.8183 69.7413 15.5745 69.7413 13.3692C69.7413 11.6217 68.357 10.706 66.8334 10.6221V10.5C68.5426 10.1337 69.432 9.24855 69.432 8.05814C69.432 5.89099 67.514 4.73111 64.3277 4.73111C61.5435 4.73111 59.2852 6.04361 59.2852 8.30233H63.3068C63.3068 7.79869 63.8095 7.44768 64.5133 7.44768C65.217 7.44768 65.7197 7.875 65.7197 8.48547C65.7197 9.01962 65.2093 9.40116 64.4823 9.40116H62.9974V11.8735H64.4823C65.2248 11.8735 65.7507 12.3161 65.7507 12.9419C65.7507 13.6057 65.1706 14.0712 64.3586 14.0712C63.5465 14.0712 62.9665 13.6515 62.9665 13.064H58.9449Z" fill="black"/>
<path d="M77.4519 16.8183C81.3188 16.8183 83.608 14.3765 83.608 10.7747C83.608 7.17297 81.3188 4.73111 77.4519 4.73111C73.585 4.73111 71.2957 7.17297 71.2957 10.7747C71.2957 14.3765 73.585 16.8183 77.4519 16.8183ZM77.4828 13.7049C76.3382 13.7049 75.6576 12.5832 75.6576 10.7442C75.6576 8.90516 76.3382 7.78343 77.4828 7.78343C78.5655 7.78343 79.2461 8.90516 79.2461 10.7442C79.2461 12.5832 78.5655 13.7049 77.4828 13.7049Z" fill="black"/>
<path d="M85.667 16.6047H91.6685C95.0095 16.6047 96.8037 15.5058 96.8037 13.3692C96.8037 12.0262 95.6901 10.6526 92.9987 10.5305C94.9476 10.2253 95.9994 9.24855 95.9994 8.08866C95.9994 5.95203 94.0505 4.88372 90.8642 4.88372H85.667V16.6047ZM89.6267 13.6439V11.782H91.6685C92.3568 11.782 92.7821 12.1406 92.7821 12.7282C92.7821 13.3005 92.3568 13.6439 91.6685 13.6439H89.6267ZM89.6267 9.64535V7.93605H90.8642C91.5911 7.93605 92.0397 8.25654 92.0397 8.7907C92.0397 9.32486 91.6453 9.64535 90.9879 9.64535H89.6267Z" fill="black"/>
<path d="M102.086 16.7878C103.633 16.7878 104.8 16.2689 105.52 14.9564H105.612V16.6047H109.603V8.57704C109.603 6.40988 107.523 4.73111 104.128 4.73111C100.578 4.73111 98.8299 6.5625 98.683 8.69913H102.612C102.712 7.9742 103.254 7.63082 104.066 7.63082C104.808 7.63082 105.334 7.96657 105.334 8.57704V8.60756C105.334 9.2867 104.576 9.50036 102.581 9.64535C100.129 9.82086 98.2189 10.7976 98.2189 13.3692C98.2189 15.7042 99.8121 16.7878 102.086 16.7878ZM103.478 14.1323C102.751 14.1323 102.241 13.7813 102.241 13.125C102.241 12.5222 102.674 12.0567 103.664 11.9041C104.344 11.7972 104.916 11.6599 105.365 11.4767V12.4535C105.365 13.5218 104.445 14.1323 103.478 14.1323Z" fill="black"/>
<path d="M105.009 3.41861H107.824L110.144 0H106.494L105.009 3.41861Z" fill="black"/>
<path d="M116.318 4.88372H112.296V16.6047H116.318V12.2703H119.288V16.6047H123.278V4.88372H119.288V9.12645H116.318V4.88372Z" fill="black"/>
<path d="M129.661 11.2326V4.88372H125.639V16.6047H129.661L132.971 10.2253V16.6047H136.992V4.88372H132.971L129.661 11.2326Z" fill="black"/>
<path d="M145.184 16.8183C148.479 16.8183 150.598 15.2616 151 12.8198H147.102C146.855 13.4836 146.151 13.8576 145.277 13.8576C144.009 13.8576 143.266 13.0334 143.266 11.9041V11.7209H151V10.7442C151 7.01272 148.68 4.73111 145.091 4.73111C141.41 4.73111 139.059 7.14244 139.059 10.7747C139.059 14.5672 141.379 16.8183 145.184 16.8183ZM143.266 9.40116C143.289 8.38626 144.14 7.69186 145.184 7.69186C146.244 7.69186 147.048 8.3939 147.071 9.40116H143.266Z" fill="black"/>
</svg>
