<svg width="36" height="8" viewBox="0 0 36 8" fill="none" xmlns="http://www.w3.org/2000/svg">
<path d="M2.80568 8C4.48264 8 5.61136 6.8209 5.61136 5.04478C5.61136 3.25373 4.48264 2.07463 2.80568 2.07463C1.12872 2.07463 0 3.25373 0 5.04478C0 6.8209 1.12872 8 2.80568 8ZM2.80568 7.20896C1.53184 7.20896 0.951352 6.19403 0.951352 5.04478C0.951352 3.89552 1.53184 2.86567 2.80568 2.86567C4.07953 2.86567 4.66001 3.89552 4.66001 5.04478C4.66001 6.19403 4.07953 7.20896 2.80568 7.20896Z" fill="#787878"/>
<path d="M9.03659 4.43284C9.03659 3.43284 9.70576 2.86567 10.6168 2.86567C11.4996 2.86567 12.0358 3.39925 12.0358 4.29851V7.8806H12.9871V4.23881C12.9871 2.77612 12.1446 2.07463 10.8909 2.07463C9.9557 2.07463 9.37521 2.46269 9.08497 3.04478H9.00434V2.14925H8.08524V7.8806H9.03659V4.43284Z" fill="#787878"/>
<path d="M16.6986 0.238806H15.7472V7.8806H16.6986V0.238806Z" fill="#787878"/>
<path d="M19.4627 7.8806H20.414V2.14925H19.4627V7.8806ZM19.9464 1.19403C20.3173 1.19403 20.6237 0.925373 20.6237 0.597015C20.6237 0.268657 20.3173 0 19.9464 0C19.5756 0 19.2692 0.268657 19.2692 0.597015C19.2692 0.925373 19.5756 1.19403 19.9464 1.19403Z" fill="#787878"/>
<path d="M24.1295 4.43284C24.1295 3.43284 24.7987 2.86567 25.7097 2.86567C26.5925 2.86567 27.1287 3.39925 27.1287 4.29851V7.8806H28.08V4.23881C28.08 2.77612 27.2375 2.07463 25.9838 2.07463C25.0486 2.07463 24.4681 2.46269 24.1779 3.04478H24.0973V2.14925H23.1782V7.8806H24.1295V4.43284Z" fill="#787878"/>
<path d="M33.4362 8C34.6939 8 35.613 7.41791 35.9033 6.55224L34.9841 6.31343C34.7423 6.91045 34.1819 7.20896 33.4362 7.20896C32.3196 7.20896 31.5496 6.54104 31.5053 5.31343H36V4.9403C36 2.80597 34.6294 2.07463 33.3394 2.07463C31.6625 2.07463 30.5499 3.29851 30.5499 5.0597C30.5499 6.8209 31.6464 8 33.4362 8ZM31.5053 4.55224C31.5698 3.66045 32.251 2.86567 33.3394 2.86567C34.3714 2.86567 35.0325 3.58209 35.0325 4.55224H31.5053Z" fill="#787878"/>
</svg>
